<svg xmlns:x="http://ns.adobe.com/Extensibility/1.0/" xmlns:i="http://ns.adobe.com/AdobeIllustrator/10.0/" xmlns:graph="http://ns.adobe.com/Graphs/1.0/" xmlns="http://www.w3.org/2000/svg" xmlns:xlink="http://www.w3.org/1999/xlink" version="1.1" x="0px" y="0px" viewBox="0 0 64 64" enable-background="new 0 0 64 64" xml:space="preserve"><metadata><sfw xmlns="http://ns.adobe.com/SaveForWeb/1.0/"><slices></slices><sliceSourceBounds y="-8160" x="-8165" width="16389" height="16384" bottomLeftOrigin="true"></sliceSourceBounds><optimizationSettings><targetSettings targetSettingsID="0" fileFormat="PNG24Format"><PNG24Format transparency="true" filtered="false" interlaced="false" noMatteColor="false" matteColor="#FFFFFF"></PNG24Format></targetSettings></optimizationSettings></sfw></metadata><g><g><path d="M14,42h36c1.104,0,2-0.896,2-2V16c0-1.104-0.896-2-2-2H14c-1.104,0-2,0.896-2,2v24C12,41.104,12.896,42,14,42z M16,18h32    v20H16V18z"></path><path d="M56,46H8c-1.104,0-2,0.896-2,2s0.896,2,2,2h48c1.104,0,2-0.896,2-2S57.104,46,56,46z"></path></g></g></svg>