<svg xmlns="http://www.w3.org/2000/svg" xmlns:xlink="http://www.w3.org/1999/xlink" viewBox="0 0 84 84" version="1.1" x="0px" y="0px"><title>finance2</title><desc>Created with Sketch.</desc><g stroke="none" stroke-width="1" fill="none" fill-rule="evenodd"><g fill="#000000"><path d="M29.0734174,52.5369165 C29.314436,53.401748 30.1022118,54 31,54 L63,54 C63.8651179,54 64.6321649,53.4437683 64.9009907,52.6214777 L73.4009907,26.6214777 C73.8236749,25.3285611 72.8602557,24 71.5,24 L33.984131,24 C32.8795615,24 31.984131,24.8954305 31.984131,26 C31.984131,27.1045695 32.8795615,28 33.984131,28 L68.7655285,27.929213 L61.5526151,50.0027986 L32.5352541,50.0589047 L24.4265826,20.9630835 C24.2180383,20.2147773 23.5950508,19.654921 22.828798,19.5272122 L10.828798,17.5272122 C9.73925733,17.345622 8.70880226,18.0816614 8.52721215,19.171202 C8.34562205,20.2607427 9.08166138,21.2911977 10.171202,21.4727878 L20.9113176,23.2628071 L29.0734174,52.5369165 Z M55.5816769,41 C56.6862464,41 57.5816769,40.1045695 57.5816769,39 C57.5816769,37.8954305 56.6862464,37 55.5816769,37 L40.4444444,37 C39.3398749,37 38.4444444,37.8954305 38.4444444,39 C38.4444444,40.1045695 39.3398749,41 40.4444444,41 L55.5816769,41 L55.5816769,41 Z M41,63.5 C41,59.9101491 38.0898509,57 34.5,57 C30.9101491,57 28,59.9101491 28,63.5 C28,67.0898509 30.9101491,70 34.5,70 C38.0898509,70 41,67.0898509 41,63.5 L41,63.5 Z M32,63.5 C32,62.1192881 33.1192881,61 34.5,61 C35.8807119,61 37,62.1192881 37,63.5 C37,64.8807119 35.8807119,66 34.5,66 C33.1192881,66 32,64.8807119 32,63.5 L32,63.5 Z M64,63.5 C64,59.9101491 61.0898509,57 57.5,57 C53.9101491,57 51,59.9101491 51,63.5 C51,67.0898509 53.9101491,70 57.5,70 C61.0898509,70 64,67.0898509 64,63.5 L64,63.5 Z M55,63.5 C55,62.1192881 56.1192881,61 57.5,61 C58.8807119,61 60,62.1192881 60,63.5 C60,64.8807119 58.8807119,66 57.5,66 C56.1192881,66 55,64.8807119 55,63.5 L55,63.5 Z"></path></g></g></svg>